<?xml version="1.0" standalone="no"?>
<!DOCTYPE svg PUBLIC "-//W3C//DTD SVG 20010904//EN"
 "http://www.w3.org/TR/2001/REC-SVG-20010904/DTD/svg10.dtd">
<svg version="1.0" xmlns="http://www.w3.org/2000/svg"
 width="1024.000000pt" height="1024.000000pt" viewBox="0 0 1024.000000 1024.000000"
 preserveAspectRatio="xMidYMid meet">

<g transform="translate(0.000000,1024.000000) scale(0.100000,-0.100000)"
fill="#000000" stroke="none">
<path d="M4915 9440 c-167 -12 -388 -37 -490 -56 -44 -8 -107 -20 -140 -26
-186 -34 -409 -94 -610 -165 -97 -34 -120 -43 -167 -63 -13 -5 -51 -20 -85
-34 -34 -14 -131 -59 -215 -100 -471 -230 -944 -586 -1291 -974 -347 -389
-596 -775 -777 -1207 -205 -489 -309 -938 -342 -1472 -12 -203 -5 -445 22
-713 20 -202 80 -496 152 -740 100 -338 262 -704 453 -1020 292 -484 763 -984
1229 -1306 609 -420 1287 -671 2025 -749 184 -20 669 -20 873 0 1200 115 2317
749 3040 1727 124 166 146 200 233 343 323 537 517 1108 589 1735 84 724 -18
1471 -289 2131 -156 379 -404 800 -624 1062 -11 12 -55 65 -99 117 -231 275
-562 570 -857 767 -486 324 -935 515 -1515 647 -319 72 -824 115 -1115 96z
m458 -330 c663 -42 1244 -224 1817 -568 488 -293 913 -698 1253 -1194 37 -53
67 -100 67 -102 0 -3 15 -29 34 -58 225 -353 428 -886 510 -1338 49 -274 60
-398 60 -710 1 -317 -9 -443 -54 -710 -67 -391 -210 -816 -388 -1150 -209
-393 -421 -681 -726 -985 -538 -536 -1213 -910 -1931 -1071 -631 -142 -1235
-136 -1864 17 -362 88 -742 245 -1081 447 -877 522 -1542 1393 -1805 2364
-103 380 -140 657 -140 1063 1 303 8 400 51 665 158 979 669 1841 1474 2486
235 188 602 408 870 519 261 108 371 147 575 200 428 112 845 152 1278 125z"/>
<path d="M6525 7877 c-44 -23 -82 -44 -85 -47 -3 -3 -86 -46 -185 -94 -99 -49
-268 -134 -375 -191 -107 -56 -325 -169 -485 -250 -308 -157 -315 -161 -315
-179 0 -6 51 -41 113 -78 280 -165 337 -197 377 -218 42 -22 44 -22 57 -4 17
23 16 23 -122 100 -55 31 -111 64 -125 73 -14 9 -64 39 -112 66 -49 28 -88 53
-88 57 0 11 120 76 555 298 132 68 276 142 320 165 44 24 140 73 213 110 72
37 132 72 132 78 0 6 3 7 7 4 3 -4 13 -1 21 5 11 10 139 68 149 68 6 0 3
-1478 -3 -1542 -8 -81 21 -91 -253 90 -189 124 -206 133 -218 116 -7 -10 -13
-20 -13 -23 0 -13 507 -341 525 -341 13 0 15 111 13 887 -2 580 -6 887 -13
889 -5 2 -46 -16 -90 -39z"/>
<path d="M5800 5924 c-221 -60 -377 -301 -341 -530 36 -231 229 -394 465 -394
138 0 233 37 328 128 109 104 154 216 146 366 -4 77 -10 103 -41 168 -47 103
-116 176 -210 221 -118 58 -234 71 -347 41z m165 -167 c4 -13 24 -32 50 -46
32 -17 50 -36 66 -68 12 -24 20 -46 18 -47 -2 -2 -23 -7 -46 -11 -39 -6 -43
-5 -58 24 -24 47 -35 37 -35 -29 l0 -60 53 -25 c72 -35 101 -79 95 -144 -6
-61 -38 -103 -95 -128 -35 -15 -43 -23 -45 -48 -3 -26 -8 -30 -35 -33 -31 -3
-33 -2 -33 31 0 30 -4 35 -29 40 -41 8 -86 51 -105 99 -20 47 -12 58 41 58 26
0 36 -6 47 -28 8 -16 22 -34 30 -41 14 -12 16 -5 16 61 l0 74 -53 26 c-65 32
-92 78 -84 140 8 56 33 88 88 111 38 17 49 26 49 44 0 19 5 23 30 23 22 0 31
-5 35 -23z"/>
<path d="M5877 5632 c-23 -25 -21 -55 3 -77 20 -18 20 -17 20 38 0 32 -2 57
-3 57 -2 0 -11 -8 -20 -18z"/>
<path d="M5967 5353 c2 -32 6 -59 7 -61 10 -9 36 33 36 57 0 24 -25 61 -42 61
-3 0 -3 -26 -1 -57z"/>
<path d="M4682 5380 c-7 -12 -10 -25 -6 -31 7 -12 -15 -41 -26 -34 -5 3 -21
-14 -37 -37 -16 -24 -54 -79 -84 -123 -31 -44 -86 -125 -124 -180 -38 -55 -92
-134 -120 -175 -28 -41 -138 -203 -243 -360 -104 -157 -227 -339 -273 -405
-45 -66 -179 -264 -297 -440 -119 -176 -254 -376 -300 -445 -255 -375 -318
-466 -389 -566 -24 -34 -43 -67 -43 -73 0 -15 2756 -16 2765 0 4 6 -1 16 -11
23 -11 8 -15 21 -12 34 6 22 -13 47 -26 35 -4 -4 -4 -1 -1 8 5 14 -35 59 -54
59 -8 0 -24 37 -22 52 0 4 -8 9 -18 13 -13 4 -18 14 -16 30 l2 25 -878 0
c-484 0 -879 3 -879 6 0 3 44 69 99 147 79 114 1278 1909 1413 2117 20 30 33
59 28 64 -5 5 -7 14 -6 20 2 6 1 7 -2 3 -6 -11 -42 23 -42 40 0 7 -9 13 -19
13 -10 0 -21 7 -24 14 -3 8 -23 18 -44 22 -21 3 -54 16 -73 29 -19 13 -71 35
-115 51 -44 15 -81 31 -83 36 -2 4 -10 8 -18 8 -8 0 -14 5 -14 11 0 6 7 8 16
5 10 -4 14 -1 12 6 -7 20 -23 19 -36 -2z m32 -74 c2 -14 -1 -23 -6 -20 -5 3
-7 12 -4 20 3 8 1 14 -5 14 -6 0 -7 5 -4 11 9 14 16 6 19 -25z m406 -202 c-15
-17 -17 -17 -23 -1 -3 8 3 14 15 14 16 2 17 -1 8 -13z"/>
<path d="M4657 5343 c-4 -3 -7 -11 -7 -17 0 -6 5 -5 12 2 6 6 9 14 7 17 -3 3
-9 2 -12 -2z"/>
<path d="M5810 4726 c-115 -25 -221 -98 -290 -198 -66 -98 -82 -146 -87 -268
-4 -90 -2 -114 17 -170 117 -345 529 -459 800 -222 230 201 227 567 -7 757
-122 100 -275 136 -433 101z m286 -188 c33 -12 34 -14 34 -66 l0 -54 -23 15
c-78 51 -173 41 -232 -24 -19 -22 -35 -44 -35 -49 0 -6 45 -10 115 -10 103 0
115 -2 115 -17 0 -38 -14 -42 -130 -45 -111 -3 -115 -4 -118 -25 -3 -23 -2
-23 111 -23 62 0 116 -2 119 -5 3 -3 3 -17 0 -30 -4 -25 -6 -25 -108 -25 -56
0 -105 -4 -108 -9 -11 -17 51 -97 89 -115 52 -25 124 -17 173 18 l37 26 3 -47
c4 -59 -13 -76 -93 -94 -131 -29 -265 48 -310 178 -12 34 -17 38 -48 38 -44 0
-50 6 -41 39 5 22 12 26 41 26 30 0 34 3 31 23 -2 17 -10 23 -39 25 -33 3 -35
5 -31 32 4 27 8 30 42 30 35 0 40 3 50 34 13 42 82 121 121 141 67 35 160 40
235 13z"/>
<path d="M5813 3475 c-166 -36 -308 -172 -368 -350 -24 -73 -22 -215 5 -294
56 -166 201 -297 368 -332 87 -18 224 -7 298 24 275 112 391 426 256 697 -34
68 -140 176 -209 213 -99 53 -230 68 -350 42z m57 -353 l68 -132 73 135 72
135 53 0 c30 0 54 -2 54 -5 0 -3 -11 -22 -23 -43 -33 -51 -167 -284 -167 -288
0 -2 26 -4 58 -4 68 0 85 -9 80 -41 -3 -23 -7 -24 -80 -27 -75 -3 -78 -4 -78
-27 0 -24 2 -25 80 -25 l80 0 0 -35 0 -35 -80 0 -79 0 -3 -57 -3 -58 -40 0
-40 0 -3 57 -3 57 -77 3 -77 3 0 30 0 30 78 3 c74 3 77 4 77 27 0 24 -2 25
-75 25 l-75 0 0 35 0 35 70 0 71 0 -37 68 c-20 37 -61 108 -91 159 -29 51 -53
97 -53 103 0 7 19 10 51 8 l51 -3 68 -133z"/>
<path d="M6545 2520 c-14 -6 4 -9 55 -9 51 0 69 3 55 9 -11 5 -36 9 -55 9 -19
0 -44 -4 -55 -9z"/>
</g>
</svg>
